<svg width="40" height="40" viewBox="0 0 40 40" fill="none" xmlns="http://www.w3.org/2000/svg">
  <circle cx="20" cy="20" r="20" fill="#F59E0B" fill-opacity="0.1"/>
  <path d="M12 20C12 16 15 13 19 13H21C25 13 28 16 28 20C28 24 25 27 21 27H19C15 27 12 24 12 20Z" stroke="#F59E0B" stroke-width="2" fill="none"/>
  <circle cx="16" cy="18" r="1.5" fill="#F59E0B"/>
  <circle cx="24" cy="18" r="1.5" fill="#F59E0B"/>
  <path d="M16 24C16 24 18 26 20 26C22 26 24 24 24 24" stroke="#F59E0B" stroke-width="2" stroke-linecap="round" fill="none"/>
  <path d="M20 8L22 10L20 12L18 10L20 8Z" fill="#F59E0B"/>
  <path d="M32 20L30 22L28 20L30 18L32 20Z" fill="#F59E0B"/>
</svg>
